<?xml version="1.0" encoding="utf-8"?>
<!-- Generator: Adobe Illustrator 27.7.0, SVG Export Plug-In . SVG Version: 6.00 Build 0)  -->
<svg version="1.1" id="Layer_1" xmlns="http://www.w3.org/2000/svg" xmlns:xlink="http://www.w3.org/1999/xlink" x="0px" y="0px"
	 viewBox="0 0 143 80" style="enable-background:new 0 0 143 80;" xml:space="preserve">
<style type="text/css">
	.st0{fill:#FFD399;}
	.st1{fill:none;stroke:#4C5354;stroke-width:2;stroke-linecap:round;stroke-linejoin:round;stroke-miterlimit:10;}
	.st2{fill:#A3BFBE;}
	.st3{fill:#4C5354;}
</style>
<g>
	<path class="st1" d="M106,43.3c-16.5,11-28.7-7.1-28.7-7.1c-5.8-7.9-10,0.3-10,0.3c-3.1,7.4-7.5,6.8-10.1,5.5
		c-1.3-0.6-1.9-2.2-1.5-3.6l2-6.7c0.9-3,3-5.4,5.8-6.6l7.4-3.3c2.7-1.2,5.1-0.9,8.4-0.2L98.6,26L106,43.3z"/>
	<path class="st1" d="M110.1,52.8l-12.7,4l-8-11.1c0,0,9.3,3.9,16.6-2.5L110.1,52.8z"/>
	<polygon class="st0" points="0,0 0,57.8 11.3,62.3 31.6,12.8 	"/>
	<polyline class="st1" points="29.9,16.8 44.4,22.9 31.6,52.8 17.5,47.3 	"/>
	<polygon class="st2" points="143,3.1 143,60.9 131.7,65.4 111.4,15.9 	"/>
	<polyline class="st1" points="113.1,19.9 98.6,26 111.4,55.9 125.5,50.4 	"/>
	<path class="st1" d="M88.4,45.7l11,13.8c0.8,1.1,1.1,2.5,0.6,3.7c-1.1,3.2-5.2,4-7.5,1.6l-15.1-16"/>
	<path class="st1" d="M70.8,56.3l12.7,13.3c3.4,3.6,9.5,2.3,11-2.4c0-0.1,0-0.1,0.1-0.2"/>
	<path class="st1" d="M64.7,62.5l10.5,11.7c1.2,1.3,2.8,2.2,4.5,2.3c2,0.1,4.5-0.6,6.6-4.1"/>
	<path class="st1" d="M65.4,24.1c-9.4-2.2-21-1.2-21-1.2"/>
	<path class="st1" d="M33.8,47.6c0,0,14.5,10,30.3,25.5l4.9,4.7c2.5,2.4,6.7,1.1,7.2-2.3c0,0,0-0.1,0-0.1"/>
	<path class="st1" d="M42.2,53.8l-1.3,1.4c-1.3,1.4-1.1,3.6,0.4,4.8c1.5,1.3,3.8,1.1,5.1-0.4l1.3-1.4"/>
	<path class="st1" d="M54.3,63.9L51.5,67c-1.5,1.6-4.1,1.8-5.8,0.3c-1.7-1.5-1.9-4.1-0.4-5.8l2.6-3"/>
	<path class="st1" d="M54.3,63.9l-1.8,2c-1.5,1.7-1.4,4.2,0.2,5.8c1.7,1.5,4.2,1.5,5.8-0.2l1.9-2"/>
	<path class="st1" d="M66,74.9l-1,1c-1.5,1.5-3.9,1.6-5.5,0.1c-1.5-1.5-1.6-3.9-0.1-5.5l0.7-0.8"/>
</g>
</svg>
