<?xml version="1.0" encoding="utf-8"?>
<!-- Generator: Adobe Illustrator 27.7.0, SVG Export Plug-In . SVG Version: 6.00 Build 0)  -->
<svg version="1.1" id="Layer_1" xmlns="http://www.w3.org/2000/svg" xmlns:xlink="http://www.w3.org/1999/xlink" x="0px" y="0px"
	 viewBox="0 0 109 80" style="enable-background:new 0 0 109 80;" xml:space="preserve">
<style type="text/css">
	.st0{fill:#FFD399;}
	.st1{fill:none;stroke:#4C5354;stroke-width:2;stroke-linecap:round;stroke-linejoin:round;stroke-miterlimit:10;}
	.st2{fill:#A3BFBE;}
	.st3{fill:#4C5354;}
</style>
<g>
	<polyline class="st1" points="95.6,39.3 108,39.3 108,79 39,79 39,66.6 	"/>
	<polygon class="st2" points="83.1,54.1 83.1,26.9 95.6,26.9 95.6,66.6 26.6,66.6 26.6,54.1 	"/>
	<polyline class="st1" points="83.1,26.9 95.6,26.9 95.6,66.6 26.6,66.6 26.6,54.1 	"/>
	<polyline class="st1" points="70,14.3 83.3,14.3 83.3,54 14.3,54 14.3,40.7 	"/>
	<path class="st2" d="M1,40.7h69V1H1V40.7z M35.5,6.2c8,0,14.6,6.5,14.6,14.6c0,8.1-6.5,14.6-14.6,14.6c-8,0-14.6-6.5-14.6-14.6
		C21,12.8,27.5,6.2,35.5,6.2"/>
	<path class="st1" d="M58.2,21.8c0,0.5,0.4,0.8,0.8,0.8c0.5,0,0.8-0.4,0.8-0.8c0-0.5-0.4-0.8-0.8-0.8C58.5,21,58.2,21.4,58.2,21.8z"
		/>
	<path class="st1" d="M11.2,21.8c0,0.5,0.4,0.8,0.8,0.8c0.5,0,0.8-0.4,0.8-0.8c0-0.5-0.4-0.8-0.8-0.8C11.6,21,11.2,21.4,11.2,21.8z"
		/>
	<path class="st3" d="M37,11.8c0.6,0,1,0.1,1.4,0.3c0.4,0.1,0.8,0.2,1.2,0.4l0,2.2c-0.7-0.3-1-0.3-1.7-0.5c-0.8-0.2-1.3-0.2-1.9-0.2
		c-0.9,0-1.7,0.3-2.3,0.8c-0.6,0.5-0.9,1.2-0.9,2c0,0.5,0.1,0.9,0.2,1.3c0.2,0.4,0.4,0.7,0.7,0.9c0.3,0.2,0.9,0.6,1.9,1.1l1.4,0.7
		c1.2,0.6,2,1.2,2.5,2c0.5,0.8,0.7,1.7,0.7,2.8c0,1.1-0.3,2.1-1,2.9c-0.7,0.8-1.4,1.2-2.4,1.5l0,2h-2.3l0-1.9
		c-1.1,0-1.9-0.4-2.6-0.7l0-2.2c0.3,0.2,0.8,0.5,1.5,0.7c0.7,0.2,1.3,0.3,1.8,0.3c0.8,0,1.5-0.2,1.9-0.7c0.5-0.5,0.7-1.1,0.7-1.8
		c0-0.4-0.1-0.9-0.3-1.2c-0.2-0.4-0.4-0.7-0.7-0.9c-0.3-0.3-0.9-0.6-1.8-1l-1.1-0.5c-1.2-0.6-2.2-1.3-2.7-2.1
		c-0.6-0.8-0.9-1.9-0.9-3.3c0-1.1,0.4-2,1.2-2.9c0.8-0.8,1.6-1.3,3-1.5l0-2H37L37,11.8z"/>
	<rect x="1" y="1" class="st1" width="69" height="39.7"/>
</g>
</svg>
