<svg xmlns="http://www.w3.org/2000/svg" width="32" height="32" viewBox="0 0 32 32" fill="none"><path d="M24.2933 19.2925C24.1057 19.4801 24 19.7348 24 20C24 20.2652 24.1054 20.5196 24.2929 20.7071L24.3015 20.7156C24.4883 20.8976 24.7393 21 25 21L25.0055 21C25.2688 20.9985 25.5209 20.8933 25.7071 20.7071L29.7071 16.7071C29.8946 16.5196 30 16.2652 30 16C30 15.7348 29.8946 15.4804 29.7071 15.2929L25.7071 11.2929C25.5196 11.1054 25.2652 11 25 11C24.9827 11 24.9655 11.0004 24.9483 11.0013C24.7013 11.0141 24.4678 11.118 24.2929 11.2929C24.1054 11.4804 24 11.7348 24 12C24 12.2652 24.1054 12.5196 24.2929 12.7071L27.5858 16L24.2933 19.2925Z" fill="#2F655B"></path><path d="M29 15L3 15C2.44772 15 2 15.4477 2 16C2 16.5523 2.44772 17 3 17L29 17C29.5523 17 30 16.5523 30 16C30 15.4477 29.5523 15 29 15Z" fill="#2F655B"></path></svg>