<svg xmlns="http://www.w3.org/2000/svg" width="15" height="16" viewBox="0 0 15 16" fill="none"><path d="M13.4095 6.1633C13.4095 5.92627 13.3153 5.69894 13.1477 5.53134C12.9801 5.36373 12.7528 5.26957 12.5158 5.26957H10.7283V3.48211C10.7283 3.24508 10.6342 3.01775 10.4666 2.85015C10.2989 2.68254 10.0716 2.58838 9.83459 2.58838H2.68475C2.44772 2.58838 2.22039 2.68254 2.05278 2.85015C1.88518 3.01775 1.79102 3.24508 1.79102 3.48211V10.632C1.79078 10.7166 1.81487 10.7995 1.86043 10.8708C1.90599 10.9421 1.97108 10.9988 2.04796 11.0341C2.12326 11.0709 2.20758 11.0852 2.2908 11.0753C2.37402 11.0654 2.45262 11.0317 2.51717 10.9783L4.47221 9.39749V11.0788C4.47221 11.3158 4.56637 11.5432 4.73398 11.7108C4.90158 11.8784 5.12891 11.9725 5.36594 11.9725H10.5943L12.6834 13.6595C12.7479 13.7129 12.8265 13.7466 12.9097 13.7565C12.993 13.7664 13.0773 13.7521 13.1526 13.7153C13.2294 13.68 13.2945 13.6233 13.3401 13.552C13.3857 13.4807 13.4097 13.3978 13.4095 13.3131V6.1633ZM11.03 11.1794C10.9517 11.1138 10.8527 11.0781 10.7507 11.0788H5.36594V9.29136H9.83459C10.0716 9.29136 10.2989 9.19719 10.4666 9.02959C10.6342 8.86198 10.7283 8.63466 10.7283 8.39763V6.1633H12.5158V12.3747L11.03 11.1794Z" fill="white"></path></svg>