<svg xmlns="http://www.w3.org/2000/svg" width="24" height="24" viewBox="0 0 24 24" fill="none"><rect y="0.200195" width="23.6" height="23.6" rx="11.8" fill="#2F655B"></rect><path d="M16.6758 13.8529L14.1394 12.7712C14.0086 12.7126 13.8649 12.6882 13.722 12.7005C13.5791 12.7128 13.4417 12.7614 13.3228 12.8415L11.9654 13.7447C11.138 13.3429 10.4682 12.6768 10.0617 11.8518L10.9594 10.4782C11.0391 10.3591 11.0877 10.2221 11.1009 10.0795C11.1142 9.93686 11.0915 9.79321 11.0352 9.66155L9.94812 7.12514C9.87227 6.95387 9.74384 6.81122 9.58144 6.71786C9.41905 6.62451 9.23114 6.58531 9.04497 6.60596C8.31465 6.70163 7.64392 7.05925 7.15749 7.61233C6.67105 8.16541 6.40201 8.87632 6.40039 9.61288C6.40039 13.9069 9.89404 17.4006 14.1881 17.4006C14.9247 17.399 15.6356 17.1299 16.1886 16.6435C16.7417 16.1571 17.0993 15.4863 17.195 14.756C17.2157 14.5698 17.1765 14.3819 17.0831 14.2195C16.9898 14.0571 16.8471 13.9287 16.6758 13.8529Z" fill="#FCFCFD"></path></svg>