<svg xmlns="http://www.w3.org/2000/svg" width="24" height="24" viewBox="0 0 24 24" fill="none"><rect y="0.800293" width="23.1997" height="23.1997" rx="11.5999" fill="#2F655B"></rect><path d="M17.4095 11.1633C17.4095 10.9263 17.3153 10.6989 17.1477 10.5313C16.9801 10.3637 16.7528 10.2696 16.5158 10.2696H14.7283V8.48211C14.7283 8.24508 14.6342 8.01775 14.4666 7.85015C14.2989 7.68254 14.0716 7.58838 13.8346 7.58838H6.68475C6.44772 7.58838 6.22039 7.68254 6.05278 7.85015C5.88518 8.01775 5.79102 8.24508 5.79102 8.48211V15.632C5.79078 15.7166 5.81487 15.7995 5.86043 15.8708C5.90599 15.9421 5.97108 15.9988 6.04796 16.0341C6.12326 16.0709 6.20758 16.0852 6.2908 16.0753C6.37402 16.0654 6.45262 16.0317 6.51717 15.9783L8.47221 14.3975V16.0788C8.47221 16.3158 8.56637 16.5432 8.73398 16.7108C8.90158 16.8784 9.12891 16.9725 9.36594 16.9725H14.5943L16.6834 18.6595C16.7479 18.7129 16.8265 18.7466 16.9097 18.7565C16.993 18.7664 17.0773 18.7521 17.1526 18.7153C17.2294 18.68 17.2945 18.6233 17.3401 18.552C17.3857 18.4807 17.4097 18.3978 17.4095 18.3131V11.1633ZM15.03 16.1794C14.9517 16.1138 14.8527 16.0781 14.7507 16.0788H9.36594V14.2914H13.8346C14.0716 14.2914 14.2989 14.1972 14.4666 14.0296C14.6342 13.862 14.7283 13.6347 14.7283 13.3976V11.1633H16.5158V17.3747L15.03 16.1794Z" fill="white"></path></svg>