<svg xmlns="http://www.w3.org/2000/svg" xmlns:xlink="http://www.w3.org/1999/xlink" id="Layer_1" x="0px" y="0px" viewBox="0 0 124.2 54" xml:space="preserve"><g>	<path fill="#002D6A" d="M72.6,29.8h-5.5l-6.3,16.8l-6.3-16.8h-5.5L40,54h5.5l1.8-5.4h8.9l1.8,5.4h5.5l1.8-5.4h8.9l1.8,5.4h5.5  L72.6,29.8z M48.8,44.6l3-8.9l3.1,8.9H48.8z M66.9,44.6l3.1-8.9l3,8.9H66.9z"></path>	<polygon fill="#002D6A" points="43,40.5 33.7,40.5 33.7,34.3 45.1,34.3 46.8,29.8 28.3,29.8 28.3,54 33.7,54 33.7,44.6 41.4,44.6    "></polygon>	<polygon fill="#002D6A" points="18.5,29.8 13,45.3 7.5,29.8 0,29.8 0,54 5.3,54 5.3,38 11,54 15,54 20.7,38 20.7,54 26,54 26,29.8    "></polygon></g><g>	<linearGradient id="SVGID_1_" gradientUnits="userSpaceOnUse" x1="93.0865" y1="27.3332" x2="93.0865" y2="3.2464">		<stop offset="0" style="stop-color:#ADCDEC"></stop>		<stop offset="1" style="stop-color:#0072BC"></stop>	</linearGradient>	<path fill="url(#SVGID_1_)" d="M94.4,3.2c-8.8,12.3-12.9,24-13,24.1l0,0h10.4c0,0,4.2-11.8,13-24.1H94.4z"></path>			<linearGradient id="SVGID_00000133493216697576926370000002296009815300961424_" gradientUnits="userSpaceOnUse" x1="109.2922" y1="44.6868" x2="109.2922" y2="3.2464">		<stop offset="0" style="stop-color:#002D6A"></stop>		<stop offset="0.441" style="stop-color:#0072BC"></stop>		<stop offset="1" style="stop-color:#002D6A"></stop>	</linearGradient>	<path fill="url(#SVGID_00000133493216697576926370000002296009815300961424_)" d="M94.4,3.2c0,0,9.9,11.2,17.9,41.4h11.9v0  c-8.1-30.2-17.9-41.4-17.9-41.4H94.4z"></path>			<linearGradient id="SVGID_00000068647836623213362470000000175567712333225140_" gradientUnits="userSpaceOnUse" x1="65.48" y1="27.3332" x2="65.48" y2="0">		<stop offset="0" style="stop-color:#0072BC"></stop>		<stop offset="1" style="stop-color:#ADCDEC"></stop>	</linearGradient>	<path fill="url(#SVGID_00000068647836623213362470000000175567712333225140_)" d="M54.2,0c0,0,5.6,18.7,12.2,27.3h10.4  C64.4,23.1,54.4,0,54.4,0H54.2z"></path>			<linearGradient id="SVGID_00000029004214489951345930000014094240570193744011_" gradientUnits="userSpaceOnUse" x1="78.0779" y1="27.3332" x2="78.0779" y2="3.2464">		<stop offset="0" style="stop-color:#ADCDEC"></stop>		<stop offset="1" style="stop-color:#0072BC"></stop>	</linearGradient>	<path fill="url(#SVGID_00000029004214489951345930000014094240570193744011_)" d="M79.4,3.2c-8.8,12.3-12.9,24-13,24.1l0,0h10.4  c0,0,4.2-11.8,13-24.1H79.4z"></path>			<linearGradient id="SVGID_00000103985922684310443390000004655358611030439310_" gradientUnits="userSpaceOnUse" x1="94.2858" y1="44.6868" x2="94.2858" y2="3.2464">		<stop offset="0" style="stop-color:#002D6A"></stop>		<stop offset="0.441" style="stop-color:#0072BC"></stop>		<stop offset="1" style="stop-color:#002D6A"></stop>	</linearGradient>	<path fill="url(#SVGID_00000103985922684310443390000004655358611030439310_)" d="M79.4,3.2c0,0,9.9,11.2,17.9,41.4h11.9  C101.1,14.4,91.3,3.2,91.3,3.2H79.4z"></path>			<linearGradient id="SVGID_00000001663550381342169560000007000675525673678512_" gradientUnits="userSpaceOnUse" x1="50.4718" y1="27.3332" x2="50.4718" y2="0">		<stop offset="0" style="stop-color:#0072BC"></stop>		<stop offset="1" style="stop-color:#ADCDEC"></stop>	</linearGradient>	<path fill="url(#SVGID_00000001663550381342169560000007000675525673678512_)" d="M39.2,0L39.2,0c0,0.1,5.6,18.7,12.2,27.3h10.4  C49.4,23.1,39.4,0,39.4,0H39.2z"></path>			<linearGradient id="SVGID_00000140011376999569986470000010550060206231740311_" gradientUnits="userSpaceOnUse" x1="63.0702" y1="27.3332" x2="63.0702" y2="3.2464">		<stop offset="0" style="stop-color:#ADCDEC"></stop>		<stop offset="1" style="stop-color:#0072BC"></stop>	</linearGradient>	<path fill="url(#SVGID_00000140011376999569986470000010550060206231740311_)" d="M64.4,3.2c-8.8,12.3-12.9,24-13,24.1h0h10.4  c0,0,4.2-11.8,13-24.1H64.4z"></path>			<linearGradient id="SVGID_00000085934023241643224540000016356274324910246018_" gradientUnits="userSpaceOnUse" x1="79.2775" y1="44.6868" x2="79.2775" y2="3.2464">		<stop offset="0" style="stop-color:#002D6A"></stop>		<stop offset="0.441" style="stop-color:#0072BC"></stop>		<stop offset="1" style="stop-color:#002D6A"></stop>	</linearGradient>	<path fill="url(#SVGID_00000085934023241643224540000016356274324910246018_)" d="M64.4,3.2L64.4,3.2c0.1,0.1,9.9,11.3,17.9,41.4  h11.9v0C86.1,14.4,76.3,3.2,76.3,3.2H64.4z"></path></g></svg>