<svg xmlns="http://www.w3.org/2000/svg" xmlns:xlink="http://www.w3.org/1999/xlink" id="Layer_1" x="0px" y="0px" viewBox="0 0 255.4 45" style="enable-background:new 0 0 255.4 45;" xml:space="preserve"><style type="text/css">	.st0{fill:#A19263;}	.st1{fill:#4C5354;}</style><g>	<path class="st0" d="M24.9,0.2C24.2,0,23.7,0,23,0c-0.7,0-1.4,0-1.9,0.2C9.3,1.2,0,10.7,0,22.5C0,35,10.4,45,23,45s23-10,23-22.5  C45.9,10.7,36.7,1.2,24.9,0.2 M14.2,23c0,1.9,0.2,3.6,0.3,5.4c-2.2-0.2-4.2-0.5-5.9-1C8.5,26,8.3,24.6,8.3,23H14.2z M8.3,22  c0-1.6,0.2-2.9,0.3-4.3c1.7-0.3,3.6-0.9,5.9-1c-0.2,1.7-0.3,3.6-0.3,5.4L8.3,22z M14.5,29.6c0.2,2.1,0.5,4,1,5.7  c-1.9-0.3-3.6-1-5.2-1.7c-0.7-1.6-1-3.3-1.4-5C10.6,28.9,12.6,29.2,14.5,29.6 M8.8,16.6c0.3-1.7,0.9-3.5,1.4-5  c1.6-0.7,3.5-1.2,5.4-1.7c-0.3,1.7-0.7,3.6-1,5.7C12.6,15.8,10.6,16.1,8.8,16.6 M10.9,10.2c2.1-4.3,5.2-7.4,8.8-8.7  c-1.6,1.6-2.8,4-3.8,7.1C14.2,9.2,12.5,9.5,10.9,10.2 M16.1,2.2c-2.8,1.9-5,4.8-6.6,8.5c-3.3,1.6-6.1,3.6-7.6,6.1  C3.8,10,9.2,4.5,16.1,2.2 M9,12.3c-0.5,1.4-0.9,2.9-1.2,4.5c-2.6,0.7-4.8,1.7-6.2,2.9C2.6,16.8,5.2,14,9,12.3 M7.6,18  c-0.2,1.4-0.3,2.6-0.3,4H1.2C1.6,20.6,3.8,19,7.6,18 M7.3,23c0,1.4,0.2,2.8,0.3,4c-3.6-1-6.1-2.6-6.4-4H7.3z M7.8,28.2  c0.3,1.6,0.7,3.1,1.2,4.7c-3.8-1.9-6.4-4.5-7.4-7.6C2.9,26.5,5,27.5,7.8,28.2 M1.9,28.2c1.7,2.4,4.3,4.5,7.6,6.1  c1.6,3.8,4,6.8,6.7,8.7C9.3,40.7,3.8,35.1,1.9,28.2 M10.9,35c1.6,0.5,3.3,1,5,1.4c0.9,3.1,2.1,5.5,3.6,7.1  C15.9,42.2,13,39.1,10.9,35 M22.5,43.8c-2.1-0.3-4-3.1-5.4-7.3c1.7,0.3,3.5,0.5,5.4,0.5V43.8z M22.5,36c-1.9,0-3.8-0.2-5.7-0.5  c-0.5-1.7-0.9-3.6-1.2-5.7c2.1,0.2,4.3,0.3,6.4,0.3l0,0l0.3,0.3V36C22.3,36,22.5,36,22.5,36z M22.5,29.1c-2.4,0-4.8-0.2-6.9-0.3  c-0.2-1.7-0.3-3.6-0.3-5.5h7.3V29.1z M22.5,22h-7.3c0-1.9,0.2-3.8,0.3-5.5c2.1-0.2,4.5-0.3,6.9-0.3V22z M22.5,15.1  c-2.2,0-4.5,0.2-6.7,0.3c0.3-2.1,0.7-4,1-5.7c1.7-0.3,3.6-0.5,5.7-0.5L22.5,15.1z M22.5,8.1c-1.9,0-3.6,0.2-5.4,0.5  c1.2-4,2.9-6.8,5-7.3c0.2,0,0.2,0,0.3,0L22.5,8.1z M44.8,22h-6.2c0-1.4-0.2-2.8-0.3-4C42.1,19,44.3,20.6,44.8,22 M38.2,16.8  c-0.3-1.6-0.7-3.1-1.2-4.7c3.6,1.9,6.4,4.5,7.4,7.6C43.1,18.5,40.8,17.7,38.2,16.8 M31.2,32.7l-0.3,0.3l-1.4,1.4l-0.9,0.9l-5-5.2  l1-1l3.8-3.8l2.1,2.1l0.7,0.7l2.9-3.6l4.8,6.1L37,32.7L34.3,36v0.3l-1.4-1.7L31.2,32.7z M31.7,35c-0.5,0.2-0.9,0.2-1.4,0.3v-0.2  l0.7-0.7L31.7,35z M31.8,22c0-1.9-0.2-3.6-0.3-5.4c2.1,0.3,4.2,0.7,5.7,1c0.2,1.4,0.3,2.8,0.3,4.3C37.6,22,31.8,22,31.8,22z   M37.6,23c0,1.2-0.2,2.6-0.3,3.8L34.3,23H37.6z M33.9,23l-2.2,2.6c0-0.9,0-1.7,0-2.6H33.9z M31.3,15.6c-0.2-2.1-0.7-4-1-5.7  c1.9,0.3,3.6,1,5.4,1.7c0.7,1.6,1,3.3,1.4,5C35.3,16.1,33.4,15.8,31.3,15.6 M44.1,16.8c-1.7-2.4-4.3-4.5-7.6-6.1  C35,7.1,32.7,4,29.9,2.2C36.7,4.5,42.1,10,44.1,16.8 M35,10.2c-1.6-0.7-3.3-1-5-1.6c-0.9-3.1-2.2-5.7-3.6-7.1  C29.9,2.8,33.1,5.9,35,10.2 M23.5,1.2c0.2,0,0.2,0,0.3,0c2.1,0.7,3.8,3.3,5,7.3C27.2,8.1,25.4,8,23.5,8V1.2z M23.5,9.2  c1.9,0,3.8,0.2,5.7,0.5c0.5,1.7,0.9,3.6,1,5.7c-2.2-0.2-4.5-0.3-6.8-0.3V9.2z M23.5,16.1c2.4,0,4.8,0.2,6.9,0.3  c0.2,1.7,0.3,3.6,0.3,5.5h-7.3L23.5,16.1z M23.5,23h7.3c0,1,0,1.9-0.2,2.9l-2.2-2.2l-4.8,4.8C23.5,28.6,23.5,23,23.5,23z   M23.5,31.5l4,4.2c-1.4,0.2-2.6,0.3-4,0.3V31.5z M23.5,43.8V37c1.7,0,3.3-0.2,5-0.3l0.2,0.2l0.2-0.2l0,0  C27.5,40.7,25.6,43.4,23.5,43.8 M29.9,36.3c0.9-0.2,1.6-0.3,2.4-0.5l1.2,1.6c-1.9,2.9-4.5,5.2-7.3,6.1  C27.9,41.9,29.1,39.5,29.9,36.3 M29.6,42.9c2.2-1.4,4.2-3.6,5.5-6.2l2.6-3.1c2.6-1.4,4.8-3.3,6.2-5.4  C42.1,35.1,36.7,40.7,29.6,42.9 M40.2,30.8l0.2-0.3L38.4,28c2.6-0.7,4.7-1.7,6.1-2.8C43.6,27.3,42.2,29.2,40.2,30.8 M38.4,27.2  c0.2-1.4,0.3-2.6,0.3-4H45C44.3,24.6,42.1,26,38.4,27.2"></path>	<path class="st1" d="M56.4,26.1c0,2.4,2.2,3.6,4.5,3.6c1.6,0,3.8-0.7,3.8-2.8c0-1.7-2.4-2.4-6.6-3.3c-3.5-0.7-6.8-1.9-6.8-5.7  c0-5.4,4.7-6.8,9.2-6.8c4.7,0,8.8,1.6,9.3,6.8h-5.5c-0.2-2.3-1.9-2.9-4-2.9c-1.4,0-3.3,0.2-3.3,1.9c0,2.1,3.3,2.4,6.6,3.1  c3.5,0.7,6.8,2.1,6.8,5.9c0,5.5-4.8,7.4-9.7,7.4s-9.7-1.9-10-7.4L56.4,26.1L56.4,26.1z"></path>	<path class="st1" d="M72.7,11.9h5.5v2.9l0,0c1.6-2.2,3.6-3.5,6.4-3.5c2.6,0,5,0.9,6.2,3.5c1.2-1.9,3.5-3.5,6.4-3.5  c4.5,0,7.8,2.1,7.8,7.6v14.2h-5.9V21.3c0-2.8-0.2-5.2-3.6-5.2c-3.3,0-3.8,2.8-3.8,5.4v11.8h-5.9V21.3c0-2.4,0.2-5.4-3.5-5.4  c-1.2,0-4,0.7-4,4.8v12.3h-5.9V11.9H72.7z"></path>	<path class="st1" d="M108.1,18.3c0.3-5.4,5.2-7.1,10-7.1c4.2,0,9.3,0.9,9.3,6.1v11.1c0,1.9,0.2,3.8,0.7,4.7h-5.9  c-0.2-0.7-0.3-1.4-0.3-2.1c-1.9,1.9-4.5,2.6-7.1,2.6c-4,0-7.3-2.1-7.3-6.4c0-9.7,14.4-4.5,14-9.2c0-2.4-1.7-2.9-3.8-2.9  c-2.2,0-3.6,0.9-3.8,3.1h-5.9C108.1,18.2,108.1,18.3,108.1,18.3z M121.5,22.7c-0.9,0.9-2.9,0.9-4.8,1.2c-1.7,0.3-3.5,1-3.5,3.1  s1.7,2.8,3.6,2.8c4.5,0,4.7-3.6,4.7-4.8C121.5,24.9,121.5,22.7,121.5,22.7z"></path>	<path class="st1" d="M137.8,11.9h4.3v3.8h-4.3v10.6c0,1.9,0.5,2.4,2.4,2.4c0.7,0,1.2,0,1.7-0.2v4.5c-1,0.2-2.3,0.2-3.5,0.2  c-3.6,0-6.8-0.9-6.8-5V15.8h-3.5v-3.8h3.5V5.5h5.9L137.8,11.9L137.8,11.9z"></path>	<path class="st1" d="M148.1,26.1c0,2.4,2.3,3.6,4.5,3.6c1.6,0,3.8-0.7,3.8-2.8c0-1.7-2.4-2.4-6.6-3.3c-3.5-0.7-6.8-1.9-6.8-5.7  c0-5.4,4.7-6.8,9.2-6.8c4.7,0,8.8,1.6,9.3,6.8H156c-0.2-2.3-1.9-2.8-4-2.8c-1.4,0-3.3,0.2-3.3,1.9c0,2.1,3.3,2.4,6.6,3.1  c3.5,0.7,6.8,2.1,6.8,5.9c0,5.5-4.8,7.4-9.7,7.4s-9.7-1.9-10-7.4C142.4,26.1,148.1,26.1,148.1,26.1z"></path>	<path class="st1" d="M182.4,31.3c0,6.4-2.6,10.2-9.3,10.2c-4.2,0-8.5-1.9-8.8-6.4h2.6c0.5,3.1,3.3,4.2,6.2,4.2c4.8,0,6.8-2.8,6.8-8  v-2.9l0,0c-1.2,2.6-3.6,4.3-6.8,4.3c-6.8,0-9.5-4.8-9.5-10.9c0-5.9,3.5-10.7,9.5-10.7c3.1,0,5.7,1.9,6.8,4.3l0,0v-3.5h2.6V31.3z   M179.8,22.3c0-4.2-1.9-8.8-6.8-8.8s-6.9,4.3-6.9,8.8c0,4.3,2.3,8.5,6.9,8.5C177.4,30.6,179.8,26.5,179.8,22.3z"></path>	<path class="st1" d="M185,11.9h2.4v5l0,0c1.4-3.5,4.2-5.4,8-5.2v2.6c-4.7-0.2-7.8,3.1-7.8,7.6v11.2H185V11.9z"></path>	<path class="st1" d="M214.6,22.5c0,6.1-3.6,11.2-10,11.2s-10-5.2-10-11.2s3.6-11.2,10-11.2C211.2,11.2,214.6,16.4,214.6,22.5z   M197.3,22.5c0,4.5,2.4,9,7.4,9c4.8,0,7.4-4.5,7.4-9s-2.4-9-7.4-9C199.7,13.5,197.3,18,197.3,22.5z"></path>	<path class="st1" d="M233.3,33.1h-2.4v-3.8l0,0c-1.4,2.8-4.2,4.5-7.3,4.5c-5.4,0-7.4-3.1-7.4-8V11.9h2.6v13.8  c0.2,3.8,1.6,5.9,5.7,5.9c4.5,0,6.4-4.2,6.4-8.5V11.9h2.6v21.1H233.3z"></path>	<path class="st1" d="M235.8,11.9h2.4v4l0,0c1.2-2.9,4.2-4.7,7.6-4.7c6.4,0,9.5,5.2,9.5,11.2s-3.1,11.2-9.5,11.2  c-3.1,0-6.2-1.6-7.3-4.7l0,0v11.8H236L235.8,11.9L235.8,11.9z M245.8,13.5c-5.7,0-7.4,4.2-7.4,9c0,4.3,1.9,9,7.4,9  c4.8,0,6.9-4.7,6.9-9S250.7,13.5,245.8,13.5z"></path></g></svg>