<svg xmlns="http://www.w3.org/2000/svg" width="12" height="12" viewBox="0 0 12 12" fill="none"><path d="M10.6758 7.85285L8.13943 6.77123C8.00855 6.71257 7.86489 6.68824 7.722 6.70054C7.57911 6.71284 7.44172 6.76137 7.3228 6.84153L5.96536 7.74469C5.13805 7.34288 4.46822 6.67685 4.0617 5.85184L4.95945 4.47818C5.03908 4.35913 5.08771 4.22208 5.10093 4.07947C5.11415 3.93686 5.09155 3.79321 5.03516 3.66155L3.94812 1.12514C3.87227 0.953869 3.74384 0.811215 3.58144 0.717863C3.41905 0.624511 3.23114 0.585314 3.04497 0.605956C2.31465 0.701628 1.64392 1.05925 1.15749 1.61233C0.671053 2.16541 0.402014 2.87632 0.400391 3.61288C0.400391 7.90693 3.89404 11.4006 8.1881 11.4006C8.92466 11.399 9.63556 11.1299 10.1886 10.6435C10.7417 10.1571 11.0993 9.48633 11.195 8.75601C11.2157 8.56984 11.1765 8.38193 11.0831 8.21954C10.9898 8.05714 10.8471 7.9287 10.6758 7.85285Z" fill="#FCFCFD"></path></svg>