<svg xmlns="http://www.w3.org/2000/svg" width="28" height="10" viewBox="0 0 28 10" fill="none"><path d="M22.2933 8.29252C22.1057 8.48005 22 8.73478 22 9C22 9.26522 22.1054 9.51957 22.2929 9.70711L22.3015 9.71564C22.4883 9.8976 22.7393 10 23 10L23.0055 9.99998C23.2688 9.99853 23.5209 9.89329 23.7071 9.70711L27.7071 5.70711C27.8946 5.51957 28 5.26522 28 5C28 4.73478 27.8946 4.48043 27.7071 4.29289L23.7071 0.292894C23.5196 0.105358 23.2652 5.96046e-07 23 5.96046e-07C22.9827 5.96046e-07 22.9655 0.000446916 22.9483 0.00134051C22.7013 0.0141379 22.4678 0.11801 22.2929 0.292894C22.1054 0.48043 22 0.734785 22 1C22 1.26522 22.1054 1.51957 22.2929 1.70711L25.5858 5L22.2933 8.29252Z" fill="white"></path><path d="M27 4L1 4C0.447717 4 1.66893e-06 4.44772 1.66893e-06 5C1.66893e-06 5.55228 0.447717 6 1 6L27 6C27.5523 6 28 5.55228 28 5C28 4.44772 27.5523 4 27 4Z" fill="white"></path></svg>