<svg xmlns="http://www.w3.org/2000/svg" width="28" height="11" viewBox="0 0 28 11" fill="none"><path d="M22.2933 8.62553C22.1057 8.81306 22 9.06779 22 9.33301C22 9.59822 22.1054 9.85258 22.2929 10.0401L22.3015 10.0486C22.4883 10.2306 22.7393 10.333 23 10.333L23.0055 10.333C23.2688 10.3315 23.5209 10.2263 23.7071 10.0401L27.7071 6.04012C27.8946 5.85258 28 5.59822 28 5.33301C28 5.06779 27.8946 4.81344 27.7071 4.6259L23.7071 0.625902C23.5196 0.438366 23.2652 0.333008 23 0.333008C22.9827 0.333008 22.9655 0.333455 22.9483 0.334348C22.7013 0.347146 22.4678 0.451018 22.2929 0.625902C22.1054 0.813438 22 1.06779 22 1.33301C22 1.59823 22.1054 1.85258 22.2929 2.04011L25.5858 5.33301L22.2933 8.62553Z" fill="#24262E"></path><path d="M27 4.33301L1 4.33301C0.447717 4.33301 1.66893e-06 4.78072 1.66893e-06 5.33301C1.66893e-06 5.88529 0.447717 6.33301 1 6.33301L27 6.33301C27.5523 6.33301 28 5.88529 28 5.33301C28 4.78072 27.5523 4.33301 27 4.33301Z" fill="#24262E"></path></svg>